<svg version="1.2" xmlns="http://www.w3.org/2000/svg" viewBox="0 0 1339 1143" width="1339" height="1143">
	<title>cr-defense-platform-implementation-preview-1-pdf-svg-svg</title>

	<style>
		.s0 { fill: #ffffff } 
		.s1 { fill: #43454b } 
	</style>
	<g id="Clip-Path: Clip-Path: Page 1" clip-path="url(#cp1)">
		<g id="Clip-Path: Page 1">
			<g id="Page 1">
				<path id="Path 45" class="s0" d="m1337.7 134.2c-2.4-4.3-6.7-6.6-11-4.3l-107.6 23.9c-2 2.4-50.6 13.3-131.6 26.2-109.6-113.9-261.2-179.7-419-179.7-155.8 0-309.3 65.8-416.6 179.7-79.1-12.9-127.2-23.8-133.9-26.2l-105.3-23.9c-4.3-2.3-8.6 0-11 4.3-1.9 4.3-1.9 8.6 2.4 11l120.6 251.7c-17.6 57.2-26.2 114.3-26.2 173.4 0 315.5 256.4 572 570 572 316 0 572.5-256.5 572.5-572 0-59.1-8.6-116.2-26.3-173.4l120.6-251.7c4.4-2.4 4.4-6.7 2.4-11z"/>
				<path id="Path 46" fill-rule="evenodd" class="s1" d="m1324.4 140.9h4.3l-124.9 256c17.6 54.8 28.6 114.3 28.6 173.4 0 311.2-252.2 563-563.9 563-309.3 0-561.4-251.8-561.4-563 0-59.1 8.6-118.6 28.5-173.4l-124.9-256h2l-2-2.4 105 26.3c2.3 0 55.2 10.9 140.5 26.2 105.4-115.9 256.5-181.6 412.3-181.6 157.8 0 307 65.7 414.7 181.6 85.3-15.3 138.2-26.2 138.2-26.2l107.3-26.3zm-653.5 140.2h-4.3c-197.3-4.3-370.8-28.6-471.8-45.8 39.5 39.1 92.4 93.9 151.5 166.4 96.3 120.5 227.9 304.5 322.2 526.1 94.4-221.6 226-405.6 322.7-526.1 59.1-72.5 112-127.3 151.1-166.4-100.6 17.2-274.1 41.5-471.4 45.8zm-285-74.4c81 11 177.3 17.6 282.6 19.6 105.4-2 202.1-8.6 283.1-19.6-79.1-63.4-179.7-96.3-283.1-96.3-102.9 0-201.6 32.9-282.6 96.3zm282.6-149.1c-131.5 0-256.4 50.5-353.1 140.1q15.6 2.3 30.9 4.7c90.1-79.1 201.7-120.6 322.2-120.6 120.6 0 235 41.5 322.7 120.6q15.3-2.4 30.5-4.7c-94.3-89.6-221.6-140.1-353.2-140.1zm-554.8 173l70.1 144.8q15.7-21.9 32.9-39.5c-43.8-50.5-81-85.4-103-105.3zm322.7 585.2l1.9-2.3q0 0 2.4 2.3c37.2 0 72.4-8.6 102.9-21.9q-13.3-23.9-26.2-48.1-35.2 13.3-72.4 13.3c-112 0-204-90.1-204-201.6 0-50.5 19.6-98.7 50.5-136.3q-20-23.9-39.6-45.8c-46.2 48.2-70 111.6-70 179.7 0 142.5 113.9 258.4 254.5 260.7zm-85.8-322.2q-13.3-15.2-24.3-28.5c-19.5 26.6-30.5 57.1-30.5 92.4 0 34.8 13.3 65.3 32.9 92-8.6-17.7-13.3-39.6-13.3-61.5 0-35.2 10.9-68.1 35.2-94.4zm-6.6 94.4c0 63.4 50.5 116.3 114.3 116.3q6.3 0 15.3-2.4 6.6-2.3 15.2-4.3c-39.5-65.8-81-124.9-120.6-179.7-15.2 19.6-24.2 45.8-24.2 70.1zm324.5 492.9c226 0 417-144.5 484.8-346.1q-19.6 28.6-45.8 52.4c-83.4 166.8-252.2 271.7-439 271.7-100.6 0-197.3-30.5-278.3-87.3-70.1-48.5-123-109.6-160.2-184.4q-26.2-23.8-46.2-52.4c68.1 201.6 261.2 346.1 484.7 346.1zm20-52.5c144.5-4.3 278.4-81 359.5-199.3-41.5 23.9-89.7 37.2-140.2 39.2-28.6 13.3-153.5 68.1-219.3 160.1zm118.3-173q-19.6-4.3-39.6-13.3-12.9 26.2-26.2 54.8c21.9-15.3 43.8-30.6 65.8-41.5zm-377.1 12.9c-50.5-2-98.7-15.3-142.5-39.2q49.3 68.9 118.2 118.3c72.5 50.5 157.8 78.6 245.9 81-68.1-92-193-146.8-221.6-160.1zm166.4 28.6q-12.9-28.6-26.2-54.8-19.6 9-37.2 13.3c19.6 10.9 41.5 26.2 63.4 41.5zm296.4-137.8q-37.2 0-72.4-13.3-13.3 24.2-26.3 48.1c32.9 13.3 67.8 21.9 103 21.9q2.4-2.3 4.3-2.3v2.3c140.6-2.3 256.9-118.2 256.9-260.7 0-68.1-26.6-131.5-72.5-179.7q-19.9 21.9-39.5 45.8c32.9 37.6 50.5 85.8 50.5 136.3 0 111.5-92.4 201.6-204 201.6zm138.2-171.1q0 19.6-4.7 37.2c9-21.9 15.7-43.9 15.7-67.7 0-35.3-11-65.8-30.9-92.4q-8.7 13.3-19.6 24.2c23.9 26.3 39.5 61.5 39.5 98.7zm-57.1-74.4q-62.7 82.2-124.9 184 17.6 6.7 37.2 6.7c63.4 0 113.9-52.9 113.9-116.3 0-26.2-8.6-52.5-26.2-74.4zm146.8-177.7q20 17.6 32.9 39.5l70.5-144.8c-22 19.9-59.6 54.8-103.4 105.3z"/>
			</g>
		</g>
	</g>
</svg>